<?xml version="1.0" encoding="UTF-8"?>
<svg width="512" height="512" version="1.1" viewBox="0 0 512 512" xmlns="http://www.w3.org/2000/svg">
 <path d="m199.94 37.232c26.357 47.129 73.329 133.23 99.315 181 1.0006 1.8391-0.50854 2.1242-1.0657 1.5874-40.589-39.113-92.884-89.711-148.27-144.05-6.446-6.3238-24.531 13.748-18.054 20.037 51.222 49.734 157.72 140.07 150.34 147.82-8.4793 8.896-121.69-57.742-190.03-90.429-8.1006-3.8751-19.953 20.683-11.784 24.405 47.403 21.587 131.81 61.918 186.88 88.246 1.5072 0.72047 1.0169 1.862-1.0657 1.5873-65.366-8.6179-202.68-27.034-202.68-27.034-8.4097-1.1216-11.777 24.352-3.3836 25.596l206.06 30.556 27.398 22.579c12.288 7.3946 26.456 10.275 40.939 7.5496 14.481-2.7251 26.644-10.56 33.851-23.01 8.7754-11.358 11.282-27.084 8.7742-40.477-2.5087-13.394-10.534-27.138-23.073-35.872l-29.279-18.064s-70.494-126.86-101.38-184.76c-4.252-7.971-27.916 4.8606-23.507 12.744zm139.5 213.65c12.538 8.7336 15.549 24.808 7.024 37.505-4.2624 6.3486-10.343 10.266-16.926 11.505-6.5824 1.2388-13.667-0.20181-19.685-3.2289 0 0-14.647-12.397-19.56-17.119-11.969-11.501 16.7-47.252 27.706-41.267 8.1982 4.4575 21.44 12.605 21.44 12.605z" fill="#ff2020" stroke-width=".70558"/>
 <g transform="matrix(.27856 .60364 -.61908 .2716 1031 1398.2)">
  <path d="m-1798.7 527.82c0.3022 19.926 59.951 22.009 60.03 2.0824 0.1765-44.674 1.1678-153.96 1.1678-153.96 40.821-11.999 72.224-45.998 80.689-88.621 1.4371-7.5283 2.1391-14.843 2.127-22.318-0.053-31.818-13.02-60.594-35.141-82.611l0.01-0.01c-22.506-21.224-49.79-32.61-80.414-32.559-7.1578 0.0119-14.166 0.68794-22.498 2.2598-22.64 4.8332-41.615 15.139-57.115 29.873-15.388 14.899-26.476 33.425-31.889 54.219-2.4329 9.3464-3.7242 19.145-3.7071 29.244 0.013 7.583 0.75 14.999 2.1621 22.174 0.012 0.13172 0.05 0.23235 0.08 0.35156 4.3801 21.889 14.966 41.549 29.844 57.066 0.02 0.0277 0.044 0.0599 0.07 0.0859 0.023 0.0171 0.048 0.0327 0.066 0.0508 13.816 14.362 31.312 25.159 50.975 30.863 0 0 2.7695 100.8 3.543 151.81z" color="#000000" stroke-linecap="round" stroke-linejoin="round" stroke-width="21.413" style="-inkscape-stroke:none"/>
 </g>
 <g transform="matrix(.27856 .60364 -.61908 .2716 1031 1398.2)" fill="#fff" stroke-linecap="round" stroke-linejoin="round" stroke-width="31.362">
  <path d="m-1711.2 321.06h12.878l-12.878 12.878z" color="#000000" style="-inkscape-stroke:none"/>
  <path d="m-1763.6 321.06h39.467v24.241c-12.322 6.6605-25.835 10.291-39.467 10.899z" color="#000000" style="-inkscape-stroke:none"/>
  <path d="m-1815.9 321.06h39.467v34.81c-13.773-1.3172-27.301-5.739-39.467-13.282z" color="#000000" style="-inkscape-stroke:none"/>
  <path d="m-1840 321.06h11.113v11.854c-4.1307-3.5686-7.8911-7.7373-11.113-11.846z" color="#000000" style="-inkscape-stroke:none"/>
  <path d="m-1711.2 268.66h35.139c-0.6224 13.636-4.2662 27.156-10.936 39.479h-24.203z" color="#000000" style="-inkscape-stroke:none"/>
  <path d="m-1763.6 268.66h39.467v39.479h-39.467z" color="#000000" style="-inkscape-stroke:none"/>
  <path d="m-1815.9 268.66h39.467v39.479h-39.467z" color="#000000" style="-inkscape-stroke:none"/>
  <path d="m-1859.4 268.66h30.562v39.479h-19.604c-6.6821-12.319-10.339-25.835-10.959-39.467z" color="#000000" style="-inkscape-stroke:none"/>
  <path d="m-1711.2 216.28h21.569c7.5339 12.165 11.949 25.696 13.256 39.467h-34.825z" color="#000000" style="-inkscape-stroke:none"/>
  <path d="m-1763.6 216.28h39.467v39.467h-39.467z" color="#000000" style="-inkscape-stroke:none"/>
  <path d="m-1815.9 216.28h39.467v39.467h-39.467z" color="#000000" style="-inkscape-stroke:none"/>
  <path d="m-1845.8 216.28h16.966v39.467h-30.236c1.3117-13.77 5.7317-27.304 13.27-39.467z" color="#000000" style="-inkscape-stroke:none"/>
  <path d="m-1711.2 192.21c4.6354 3.5898 8.216 7.2497 11.906 11.151h-11.906z" color="#000000" style="-inkscape-stroke:none"/>
  <path d="m-1776.5 173.15 0.051 30.219h-59.675c13.924-17.443 40.783-30.219 59.623-30.219z" color="#000000" style="-inkscape-stroke:none"/>
  <path d="m-1763.6 172.83c13.628 0.60999 27.143 4.2562 39.467 10.922v19.626h-39.467z" color="#000000" style="-inkscape-stroke:none"/>
 </g>
</svg>
