<?xml version="1.0" encoding="UTF-8"?>
<svg width="512" height="512" version="1.1" viewBox="0 0 512 512" xmlns="http://www.w3.org/2000/svg">
 <path d="m233.03 67.35c36.133 64.61 100.53 182.64 136.15 248.14 1.3717 2.5212-0.69716 2.9121-1.461 2.1762-55.644-53.621-127.34-122.99-203.27-197.48-8.8369-8.6694-33.63 18.847-24.751 27.469 70.221 68.182 216.23 192.03 206.11 202.65-11.624 12.196-166.83-79.159-260.51-123.97-11.105-5.3124-27.354 28.355-16.155 33.457 64.985 29.595 180.7 84.884 256.2 120.98 2.0662 0.9877 1.3941 2.5526-1.461 2.1761-89.611-11.814-277.85-37.061-277.85-37.061-11.529-1.5376-16.145 33.384-4.6386 35.09l282.49 41.889 37.56 30.954c16.846 10.137 36.269 14.086 56.124 10.35 19.853-3.7359 36.527-14.477 46.407-31.545 12.03-15.571 15.467-37.129 12.029-55.491-3.4392-18.363-14.441-37.204-31.631-49.178l-40.138-24.765s-96.642-173.91-138.99-253.29c-5.8292-10.928-38.271 6.6635-32.227 17.471zm191.25 292.9c17.189 11.973 21.316 34.01 9.6293 51.416-5.8435 8.7033-14.18 14.074-23.204 15.773-9.0239 1.6982-18.736-0.27667-26.986-4.4266 0 0-20.079-16.996-26.815-23.469-16.408-15.766 22.895-64.779 37.982-56.574 11.239 6.1109 29.393 17.281 29.393 17.281z" fill="#ff2020" stroke-width=".96729"/>
</svg>
