<?xml version="1.0" encoding="UTF-8"?>
<svg width="512" height="512" version="1.1" viewBox="0 0 512 512" xml:space="preserve" xmlns="http://www.w3.org/2000/svg">

		
	<path d="m355.88 46.493h-32.829c-8.7067 0-17.057 3.3958-23.213 9.4403-6.1565 6.0446-9.6149 14.243-9.6149 22.791v236.37c0 8.5484 3.4588 16.747 9.6149 22.791 6.1566 6.0446 14.507 9.4403 23.213 9.4403h109.43c8.7067 0 17.057-3.3958 23.213-9.4403 6.1566-6.0446 9.6149-14.243 9.6149-22.791v-236.37c0-8.5484-3.4587-16.747-9.6149-22.791-6.1565-6.0446-14.507-9.4403-23.213-9.4403h-32.829m-43.772 0v21.488h43.772v-21.488m-43.772 0h43.772m-27.597 269.34 11-0.1799" fill="none" stroke="#666" stroke-linecap="round" stroke-linejoin="round" stroke-width="21.686"/><path d="m304.59 30.904c15.418 27.569 42.895 77.934 58.096 105.88 0.58531 1.0758-0.29748 1.2426-0.62339 0.92856-23.743-22.88-54.334-52.478-86.736-84.263-3.7707-3.6992-14.35 8.0419-10.561 11.721 29.963 29.093 92.264 81.937 87.947 86.47-4.9601 5.2039-71.186-33.777-111.16-52.898-4.7386-2.2668-11.672 12.099-6.8932 14.276 27.729 12.628 77.106 36.22 109.32 51.621 0.88163 0.42145 0.59486 1.0892-0.62339 0.92854-38.237-5.0412-118.56-15.814-118.56-15.814-4.9194-0.6561-6.8892 14.245-1.9793 14.973l120.54 17.874 16.027 13.208c7.1882 4.3256 15.476 6.0104 23.948 4.4163 8.4711-1.5941 15.586-6.1774 19.802-13.46 5.1333-6.6441 6.5998-15.843 5.1326-23.678-1.4675-7.8353-6.1621-15.875-13.497-20.984l-17.127-10.567s-41.237-74.208-59.307-108.08c-2.4873-4.6628-16.33 2.8433-13.751 7.4547zm81.604 124.98c7.3345 5.1089 9.0955 14.512 4.1088 21.939-2.4934 3.7137-6.0504 6.0055-9.9011 6.7302-3.8505 0.72464-7.9945-0.11805-11.515-1.8888 0 0-8.5678-7.252-11.442-10.014-7.0013-6.7275 9.7691-27.641 16.207-24.14 4.7957 2.6075 12.542 7.3737 12.542 7.3737z" fill="#ff2020" stroke-width=".41274"/><g transform="matrix(.16295 .35311 -.36214 .15888 790.73 827.04)"><path d="m-1798.7 527.82c0.3022 19.926 59.951 22.009 60.03 2.0824 0.1765-44.674 1.1678-153.96 1.1678-153.96 40.821-11.999 72.224-45.998 80.689-88.621 1.4371-7.5283 2.1391-14.843 2.127-22.318-0.053-31.818-13.02-60.594-35.141-82.611l0.01-0.01c-22.506-21.224-49.79-32.61-80.414-32.559-7.1578 0.0119-14.166 0.68794-22.498 2.2598-22.64 4.8332-41.615 15.139-57.115 29.873-15.388 14.899-26.476 33.425-31.889 54.219-2.4329 9.3464-3.7242 19.145-3.7071 29.244 0.013 7.583 0.75 14.999 2.1621 22.174 0.012 0.13172 0.05 0.23235 0.08 0.35156 4.3801 21.889 14.966 41.549 29.844 57.066 0.02 0.0277 0.044 0.0599 0.07 0.0859 0.023 0.0171 0.048 0.0327 0.066 0.0508 13.816 14.362 31.312 25.159 50.975 30.863 0 0 2.7695 100.8 3.543 151.81z" color="#000000" stroke-linecap="round" stroke-linejoin="round" stroke-width="21.413" style="-inkscape-stroke:none"/></g><g transform="matrix(.16295 .35311 -.36214 .15888 790.73 827.04)" fill="#fff" stroke-linecap="round" stroke-linejoin="round" stroke-width="31.362"><path d="m-1711.2 321.06h12.878l-12.878 12.878z" color="#000000" style="-inkscape-stroke:none"/><path d="m-1763.6 321.06h39.467v24.241c-12.322 6.6605-25.835 10.291-39.467 10.899z" color="#000000" style="-inkscape-stroke:none"/><path d="m-1815.9 321.06h39.467v34.81c-13.773-1.3172-27.301-5.739-39.467-13.282z" color="#000000" style="-inkscape-stroke:none"/><path d="m-1840 321.06h11.113v11.854c-4.1307-3.5686-7.8911-7.7373-11.113-11.846z" color="#000000" style="-inkscape-stroke:none"/><path d="m-1711.2 268.66h35.139c-0.6224 13.636-4.2662 27.156-10.936 39.479h-24.203z" color="#000000" style="-inkscape-stroke:none"/><path d="m-1763.6 268.66h39.467v39.479h-39.467z" color="#000000" style="-inkscape-stroke:none"/><path d="m-1815.9 268.66h39.467v39.479h-39.467z" color="#000000" style="-inkscape-stroke:none"/><path d="m-1859.4 268.66h30.562v39.479h-19.604c-6.6821-12.319-10.339-25.835-10.959-39.467z" color="#000000" style="-inkscape-stroke:none"/><path d="m-1711.2 216.28h21.569c7.5339 12.165 11.949 25.696 13.256 39.467h-34.825z" color="#000000" style="-inkscape-stroke:none"/><path d="m-1763.6 216.28h39.467v39.467h-39.467z" color="#000000" style="-inkscape-stroke:none"/><path d="m-1815.9 216.28h39.467v39.467h-39.467z" color="#000000" style="-inkscape-stroke:none"/><path d="m-1845.8 216.28h16.966v39.467h-30.236c1.3117-13.77 5.7317-27.304 13.27-39.467z" color="#000000" style="-inkscape-stroke:none"/><path d="m-1711.2 192.21c4.6354 3.5898 8.216 7.2497 11.906 11.151h-11.906z" color="#000000" style="-inkscape-stroke:none"/><path d="m-1776.5 173.15 0.051 30.219h-59.675c13.924-17.443 40.783-30.219 59.623-30.219z" color="#000000" style="-inkscape-stroke:none"/><path d="m-1763.6 172.83c13.628 0.60999 27.143 4.2562 39.467 10.922v19.626h-39.467z" color="#000000" style="-inkscape-stroke:none"/></g><path d="m156.12 164.68h32.829c8.7067 0 17.057 3.3958 23.213 9.4403 6.1565 6.0446 9.6149 14.243 9.6149 22.791v236.37c0 8.5484-3.4588 16.747-9.6149 22.791-6.1562 6.0444-14.507 9.4403-23.213 9.4403h-109.43c-8.7067 0-17.057-3.3958-23.213-9.4403s-9.6149-14.243-9.6149-22.791v-236.37c0-8.5484 3.4587-16.747 9.6149-22.791 6.1565-6.0446 14.507-9.4403 23.213-9.4403h32.829m43.772 0v21.488h-43.772v-21.488m43.772 0h-43.772m27.597 269.34-11-0.17989" fill="none" stroke="#666" stroke-linecap="round" stroke-linejoin="round" stroke-width="21.686"/><g transform="matrix(-.16295 .35311 .36214 .15888 -278.73 945.22)"><path d="m-1798.7 527.82c0.3022 19.926 59.951 22.009 60.03 2.0824 0.1765-44.674 1.1678-153.96 1.1678-153.96 40.821-11.999 72.224-45.998 80.689-88.621 1.4371-7.5283 2.1391-14.843 2.127-22.318-0.053-31.818-13.02-60.594-35.141-82.611l0.01-0.01c-22.506-21.224-49.79-32.61-80.414-32.559-7.1578 0.0119-14.166 0.68794-22.498 2.2598-22.64 4.8332-41.615 15.139-57.115 29.873-15.388 14.899-26.476 33.425-31.889 54.219-2.4329 9.3464-3.7242 19.145-3.7071 29.244 0.013 7.583 0.75 14.999 2.1621 22.174 0.012 0.13172 0.05 0.23235 0.08 0.35156 4.3801 21.889 14.966 41.549 29.844 57.066 0.02 0.0277 0.044 0.0599 0.07 0.0859 0.023 0.0171 0.048 0.0327 0.066 0.0508 13.816 14.362 31.312 25.159 50.975 30.863 0 0 2.7695 100.8 3.543 151.81z" color="#000000" stroke-linecap="round" stroke-linejoin="round" stroke-width="21.413" style="-inkscape-stroke:none"/></g><g transform="matrix(-.16295 .35311 .36214 .15888 -278.73 945.22)" fill="#fff" stroke-linecap="round" stroke-linejoin="round" stroke-width="31.362"><path d="m-1711.2 321.06h12.878l-12.878 12.878z" color="#000000" style="-inkscape-stroke:none"/><path d="m-1763.6 321.06h39.467v24.241c-12.322 6.6605-25.835 10.291-39.467 10.899z" color="#000000" style="-inkscape-stroke:none"/><path d="m-1815.9 321.06h39.467v34.81c-13.773-1.3172-27.301-5.739-39.467-13.282z" color="#000000" style="-inkscape-stroke:none"/><path d="m-1840 321.06h11.113v11.854c-4.1307-3.5686-7.8911-7.7373-11.113-11.846z" color="#000000" style="-inkscape-stroke:none"/><path d="m-1711.2 268.66h35.139c-0.6224 13.636-4.2662 27.156-10.936 39.479h-24.203z" color="#000000" style="-inkscape-stroke:none"/><path d="m-1763.6 268.66h39.467v39.479h-39.467z" color="#000000" style="-inkscape-stroke:none"/><path d="m-1815.9 268.66h39.467v39.479h-39.467z" color="#000000" style="-inkscape-stroke:none"/><path d="m-1859.4 268.66h30.562v39.479h-19.604c-6.6821-12.319-10.339-25.835-10.959-39.467z" color="#000000" style="-inkscape-stroke:none"/><path d="m-1711.2 216.28h21.569c7.5339 12.165 11.949 25.696 13.256 39.467h-34.825z" color="#000000" style="-inkscape-stroke:none"/><path d="m-1763.6 216.28h39.467v39.467h-39.467z" color="#000000" style="-inkscape-stroke:none"/><path d="m-1815.9 216.28h39.467v39.467h-39.467z" color="#000000" style="-inkscape-stroke:none"/><path d="m-1845.8 216.28h16.966v39.467h-30.236c1.3117-13.77 5.7317-27.304 13.27-39.467z" color="#000000" style="-inkscape-stroke:none"/><path d="m-1711.2 192.21c4.6354 3.5898 8.216 7.2497 11.906 11.151h-11.906z" color="#000000" style="-inkscape-stroke:none"/><path d="m-1776.5 173.15 0.051 30.219h-59.675c13.924-17.443 40.783-30.219 59.623-30.219z" color="#000000" style="-inkscape-stroke:none"/><path d="m-1763.6 172.83c13.628 0.60999 27.143 4.2562 39.467 10.922v19.626h-39.467z" color="#000000" style="-inkscape-stroke:none"/></g>















</svg>
