<?xml version="1.0" encoding="UTF-8"?>
<svg width="512" height="512" version="1.1" viewBox="0 0 512 512" xml:space="preserve" xmlns="http://www.w3.org/2000/svg">

		
	<path d="m367.56 22h-36.667c-9.7246 0-19.051 3.7928-25.927 10.544-6.8763 6.7513-10.739 15.908-10.739 25.456v264c0 9.5478 3.8631 18.705 10.739 25.456 6.8763 6.7513 16.203 10.544 25.927 10.544h122.22c9.7246 0 19.051-3.7928 25.927-10.544 6.8763-6.7513 10.739-15.908 10.739-25.456v-264c0-9.5478-3.8631-18.705-10.739-25.456-6.8763-6.7513-16.203-10.544-25.927-10.544h-36.667m-48.889 0v24h48.889v-24m-48.889 0h48.889m-30.823 300.83 12.286-0.20093" fill="none" stroke="currentColor" stroke-linecap="round" stroke-linejoin="round" stroke-width="24.221"/><path d="m381.07 80.02c6.6779 18.315 18.457 51.706 24.966 70.227 0.25064 0.71304-0.30363 0.72774-0.47126 0.50431-12.212-16.278-27.934-37.324-44.544-59.88-1.9329-2.6251-9.5347 3.4861-7.5885 6.101 15.389 20.676 48.141 59.008 45.064 61.344-3.5345 2.6819-40.043-27.59-62.512-43.177-2.6637-1.8478-8.3031 6.2217-5.6058 8.0185 15.65 10.425 43.409 29.662 61.52 42.218 0.49561 0.3436 0.25513 0.72217-0.47126 0.5043-22.799-6.8376-70.676-21.313-70.676-21.313-2.9325-0.88428-5.6003 8.0002-2.6807 8.9274l71.679 22.763 8.4632 9.6253c3.9533 3.3434 8.8367 5.1862 14.155 5.0494 5.318-0.13681 10.104-2.2284 13.39-6.2502 3.7819-3.5423 5.5814-9.0022 5.4592-13.92-0.12229-4.9182-2.1905-10.279-6.156-14.114l-9.3936-8.1248s-17.814-49.273-25.487-71.69c-1.0561-3.0858-10.229 0.12379-9.1119 3.1873zm37.407 84.179c3.9653 3.835 4.112 9.7372 0.34235 13.771-1.8849 2.017-4.2777 3.0629-6.6951 3.1251-2.4173 0.0622-4.859-0.85937-6.8296-2.285 0 0-4.5056-5.2622-5.9848-7.2281-3.6029-4.7883 8.6744-15.878 12.252-13.111 2.6649 2.061 6.9151 5.7278 6.9151 5.7278z" fill="#f00" stroke-width=".22806"/><g transform="matrix(.182 .39439 -.40448 .17746 853.24 893.8)" fill="#000080"><path d="m-1798.7 527.82c0.3022 19.926 59.951 22.009 60.03 2.0824 0.1765-44.674 1.1678-153.96 1.1678-153.96 40.821-11.999 72.224-45.998 80.689-88.621 1.4371-7.5283 2.1391-14.843 2.127-22.318-0.053-31.818-13.02-60.594-35.141-82.611l0.01-0.01c-22.506-21.224-49.79-32.61-80.414-32.559-7.1578 0.0119-14.166 0.68794-22.498 2.2598-22.64 4.8332-41.615 15.139-57.115 29.873-15.388 14.899-26.476 33.425-31.889 54.219-2.4329 9.3464-3.7242 19.145-3.7071 29.244 0.013 7.583 0.75 14.999 2.1621 22.174 0.012 0.13172 0.05 0.23235 0.08 0.35156 4.3801 21.889 14.966 41.549 29.844 57.066 0.02 0.0277 0.044 0.0599 0.07 0.0859 0.023 0.0171 0.048 0.0327 0.066 0.0508 13.816 14.362 31.312 25.159 50.975 30.863 0 0 2.7695 100.8 3.543 151.81z" color="#000000" fill="#000080" stroke-linecap="round" stroke-linejoin="round" stroke-width="21.413" style="-inkscape-stroke:none"/></g><g transform="matrix(.182 .39439 -.40448 .17746 853.24 893.8)" fill="#fff" stroke-linecap="round" stroke-linejoin="round" stroke-width="31.362"><path d="m-1711.2 321.06h12.878l-12.878 12.878z" color="#000000" style="-inkscape-stroke:none"/><path d="m-1763.6 321.06h39.467v24.241c-12.322 6.6605-25.835 10.291-39.467 10.899z" color="#000000" style="-inkscape-stroke:none"/><path d="m-1815.9 321.06h39.467v34.81c-13.773-1.3172-27.301-5.739-39.467-13.282z" color="#000000" style="-inkscape-stroke:none"/><path d="m-1840 321.06h11.113v11.854c-4.1307-3.5686-7.8911-7.7373-11.113-11.846z" color="#000000" style="-inkscape-stroke:none"/><path d="m-1711.2 268.66h35.139c-0.6224 13.636-4.2662 27.156-10.936 39.479h-24.203z" color="#000000" style="-inkscape-stroke:none"/><path d="m-1763.6 268.66h39.467v39.479h-39.467z" color="#000000" style="-inkscape-stroke:none"/><path d="m-1815.9 268.66h39.467v39.479h-39.467z" color="#000000" style="-inkscape-stroke:none"/><path d="m-1859.4 268.66h30.562v39.479h-19.604c-6.6821-12.319-10.339-25.835-10.959-39.467z" color="#000000" style="-inkscape-stroke:none"/><path d="m-1711.2 216.28h21.569c7.5339 12.165 11.949 25.696 13.256 39.467h-34.825z" color="#000000" style="-inkscape-stroke:none"/><path d="m-1763.6 216.28h39.467v39.467h-39.467z" color="#000000" style="-inkscape-stroke:none"/><path d="m-1815.9 216.28h39.467v39.467h-39.467z" color="#000000" style="-inkscape-stroke:none"/><path d="m-1845.8 216.28h16.966v39.467h-30.236c1.3117-13.77 5.7317-27.304 13.27-39.467z" color="#000000" style="-inkscape-stroke:none"/><path d="m-1711.2 192.21c4.6354 3.5898 8.216 7.2497 11.906 11.151h-11.906z" color="#000000" style="-inkscape-stroke:none"/><path d="m-1776.5 173.15 0.051 30.219h-59.675c13.924-17.443 40.783-30.219 59.623-30.219z" color="#000000" style="-inkscape-stroke:none"/><path d="m-1763.6 172.83c13.628 0.60999 27.143 4.2562 39.467 10.922v19.626h-39.467z" color="#000000" style="-inkscape-stroke:none"/></g><path d="m144.44 154h36.667c9.7246 0 19.051 3.7928 25.927 10.544 6.8763 6.7513 10.739 15.908 10.739 25.456v264c0 9.5478-3.8631 18.705-10.739 25.456s-16.203 10.544-25.927 10.544h-122.22c-9.7246 0-19.051-3.7928-25.927-10.544s-10.739-15.908-10.739-25.456v-264c0-9.5478 3.8631-18.705 10.739-25.456 6.8763-6.7513 16.203-10.544 25.927-10.544h36.667m48.889 0v24h-48.889v-24m48.889 0h-48.889m30.823 300.83-12.286-0.20093" fill="none" stroke="currentColor" stroke-linecap="round" stroke-linejoin="round" stroke-width="24.221"/><g transform="matrix(-.182 .39439 .40448 .17746 -341.24 1025.8)" fill="#000080"><path d="m-1798.7 527.82c0.3022 19.926 59.951 22.009 60.03 2.0824 0.1765-44.674 1.1678-153.96 1.1678-153.96 40.821-11.999 72.224-45.998 80.689-88.621 1.4371-7.5283 2.1391-14.843 2.127-22.318-0.053-31.818-13.02-60.594-35.141-82.611l0.01-0.01c-22.506-21.224-49.79-32.61-80.414-32.559-7.1578 0.0119-14.166 0.68794-22.498 2.2598-22.64 4.8332-41.615 15.139-57.115 29.873-15.388 14.899-26.476 33.425-31.889 54.219-2.4329 9.3464-3.7242 19.145-3.7071 29.244 0.013 7.583 0.75 14.999 2.1621 22.174 0.012 0.13172 0.05 0.23235 0.08 0.35156 4.3801 21.889 14.966 41.549 29.844 57.066 0.02 0.0277 0.044 0.0599 0.07 0.0859 0.023 0.0171 0.048 0.0327 0.066 0.0508 13.816 14.362 31.312 25.159 50.975 30.863 0 0 2.7695 100.8 3.543 151.81z" color="#000000" fill="#000080" stroke-linecap="round" stroke-linejoin="round" stroke-width="21.413" style="-inkscape-stroke:none"/></g><g transform="matrix(-.182 .39439 .40448 .17746 -341.24 1025.8)" fill="#fff" stroke-linecap="round" stroke-linejoin="round" stroke-width="31.362"><path d="m-1711.2 321.06h12.878l-12.878 12.878z" color="#000000" style="-inkscape-stroke:none"/><path d="m-1763.6 321.06h39.467v24.241c-12.322 6.6605-25.835 10.291-39.467 10.899z" color="#000000" style="-inkscape-stroke:none"/><path d="m-1815.9 321.06h39.467v34.81c-13.773-1.3172-27.301-5.739-39.467-13.282z" color="#000000" style="-inkscape-stroke:none"/><path d="m-1840 321.06h11.113v11.854c-4.1307-3.5686-7.8911-7.7373-11.113-11.846z" color="#000000" style="-inkscape-stroke:none"/><path d="m-1711.2 268.66h35.139c-0.6224 13.636-4.2662 27.156-10.936 39.479h-24.203z" color="#000000" style="-inkscape-stroke:none"/><path d="m-1763.6 268.66h39.467v39.479h-39.467z" color="#000000" style="-inkscape-stroke:none"/><path d="m-1815.9 268.66h39.467v39.479h-39.467z" color="#000000" style="-inkscape-stroke:none"/><path d="m-1859.4 268.66h30.562v39.479h-19.604c-6.6821-12.319-10.339-25.835-10.959-39.467z" color="#000000" style="-inkscape-stroke:none"/><path d="m-1711.2 216.28h21.569c7.5339 12.165 11.949 25.696 13.256 39.467h-34.825z" color="#000000" style="-inkscape-stroke:none"/><path d="m-1763.6 216.28h39.467v39.467h-39.467z" color="#000000" style="-inkscape-stroke:none"/><path d="m-1815.9 216.28h39.467v39.467h-39.467z" color="#000000" style="-inkscape-stroke:none"/><path d="m-1845.8 216.28h16.966v39.467h-30.236c1.3117-13.77 5.7317-27.304 13.27-39.467z" color="#000000" style="-inkscape-stroke:none"/><path d="m-1711.2 192.21c4.6354 3.5898 8.216 7.2497 11.906 11.151h-11.906z" color="#000000" style="-inkscape-stroke:none"/><path d="m-1776.5 173.15 0.051 30.219h-59.675c13.924-17.443 40.783-30.219 59.623-30.219z" color="#000000" style="-inkscape-stroke:none"/><path d="m-1763.6 172.83c13.628 0.60999 27.143 4.2562 39.467 10.922v19.626h-39.467z" color="#000000" style="-inkscape-stroke:none"/></g>















</svg>
